<?xml version="1.0" encoding="UTF-8" standalone="no"?>

<svg
   xmlns:dc="http://purl.org/dc/elements/1.1/"
   xmlns:cc="http://creativecommons.org/ns#"
   xmlns:rdf="http://www.w3.org/1999/02/22-rdf-syntax-ns#"
   xmlns:svg="http://www.w3.org/2000/svg"
   xmlns="http://www.w3.org/2000/svg"
   xmlns:sodipodi="http://sodipodi.sourceforge.net/DTD/sodipodi-0.dtd"
   xmlns:inkscape="http://www.inkscape.org/namespaces/inkscape"
   version="1.1"
   x="0px"
   y="0px"
   viewBox="0 0 1000 1000"
   enable-background="new 0 0 1000 1000"
   xml:space="preserve"
   id="svg8"
   sodipodi:docname="fb.svg"
   inkscape:version="0.92.2 (30a58d1, 2017-08-07)"><defs
     id="defs12" /><sodipodi:namedview
     pagecolor="#ffffff"
     bordercolor="#666666"
     borderopacity="1"
     objecttolerance="10"
     gridtolerance="10"
     guidetolerance="10"
     inkscape:pageopacity="0"
     inkscape:pageshadow="2"
     inkscape:window-width="1600"
     inkscape:window-height="835"
     id="namedview10"
     showgrid="false"
     inkscape:zoom="0.236"
     inkscape:cx="500"
     inkscape:cy="500"
     inkscape:window-x="0"
     inkscape:window-y="0"
     inkscape:window-maximized="1"
     inkscape:current-layer="g6" /><metadata
     id="metadata2"> <rdf:RDF><cc:Work
     rdf:about=""><dc:format>image/svg+xml</dc:format><dc:type
       rdf:resource="http://purl.org/dc/dcmitype/StillImage" /></cc:Work></rdf:RDF></metadata><g
     id="g6"><path
       d="M894.7,10H105.3C52.7,10,10,52.7,10,105.3v789.4c0,52.6,42.7,95.3,95.3,95.3h411.8V574.9H377.4V413.1h139.7V293.8c0-138.5,84.5-213.9,208-213.9c59.2,0,110,4.4,124.8,6.4V231l-85.6,0c-67.2,0-80.2,31.9-80.2,78.8v103.3h160.2l-20.9,161.8H684.1V990h210.6c52.6,0,95.3-42.7,95.3-95.3V105.3C990,52.7,947.3,10,894.7,10z"
       id="path4"
       style="fill:#3b5998;fill-opacity:1" /><path
       style="fill:#3b5998;stroke-width:4.237288;fill-opacity:0"
       d="M 70.338983,980.55047 C 46.691055,970.33585 24.255831,945.58436 17.244402,921.97432 11.957582,904.17169 11.016949,840.43407 11.016949,500 c 0,-447.342288 -1.0928092,-429.74289 28.473216,-458.553465 31.386098,-30.584141 1.7187,-28.734671 460.933565,-28.734671 452.33114,0 429.76881,-1.214098 456.95585,24.589186 6.62233,6.28527 16.15623,19.054882 21.18644,28.376916 l 9.14584,16.949153 V 500 917.37288 l -9.14584,16.94915 c -11.67174,21.63022 -28.9975,38.03789 -48.98077,46.38539 -12.92389,5.3986 -36.32919,6.58072 -130.29661,6.58072 H 684.74576 V 781.77966 576.27119 h 69.57856 69.5786 l 2.38,-11.65255 c 2.27894,-11.15779 19.45479,-143.84589 19.47166,-150.42372 0.004,-1.74789 -36.42047,-3.17797 -80.94433,-3.17797 H 683.8578 l 1.65419,-66.73729 c 1.93462,-78.05225 5.94818,-90.04374 34.47242,-102.99416 14.51453,-6.58981 27.90305,-8.0654 73.87152,-8.14159 L 850,233.05085 v -73.7801 -73.780089 l -15.88983,-2.667263 c -8.73941,-1.466995 -45.44492,-2.943046 -81.5678,-3.280114 -96.68068,-0.902144 -138.81453,12.687504 -182.47851,58.855766 -42.057,44.46906 -54.62611,90.28607 -54.73606,199.52468 l -0.0736,73.09322 h -69.91526 -69.91525 v 82.62712 82.62712 h 69.91525 69.91526 v 205.50847 205.50848 l -215.04238,-0.16568 c -182.271,-0.14077 -217.302462,-1.14229 -229.872877,-6.57199 z"
       id="path14"
       inkscape:connector-curvature="0" /><path
       style="fill:#3b5998;fill-opacity:0;stroke-width:4.237288"
       d="M 70.338983,980.55047 C 46.691055,970.33585 24.255831,945.58436 17.244402,921.97432 11.957582,904.17169 11.016949,840.43407 11.016949,500 c 0,-447.342288 -1.0928092,-429.74289 28.473216,-458.553465 31.386098,-30.584141 1.7187,-28.734671 460.933565,-28.734671 452.33114,0 429.76881,-1.214098 456.95585,24.589186 6.62233,6.28527 16.15623,19.054882 21.18644,28.376916 l 9.14584,16.949153 V 500 917.37288 l -9.14584,16.94915 c -11.67174,21.63022 -28.9975,38.03789 -48.98077,46.38539 -12.92389,5.3986 -36.32919,6.58072 -130.29661,6.58072 H 684.74576 V 781.77966 576.27119 h 69.57856 69.5786 l 2.38,-11.65255 c 2.27894,-11.15779 19.45479,-143.84589 19.47166,-150.42372 0.004,-1.74789 -36.42047,-3.17797 -80.94433,-3.17797 H 683.8578 l 1.65419,-66.73729 c 1.93462,-78.05225 5.94818,-90.04374 34.47242,-102.99416 14.51453,-6.58981 27.90305,-8.0654 73.87152,-8.14159 L 850,233.05085 v -73.7801 -73.780089 l -15.88983,-2.667263 c -8.73941,-1.466995 -45.44492,-2.943046 -81.5678,-3.280114 -96.68068,-0.902144 -138.81453,12.687504 -182.47851,58.855766 -42.057,44.46906 -54.62611,90.28607 -54.73606,199.52468 l -0.0736,73.09322 h -69.91526 -69.91525 v 82.62712 82.62712 h 69.91525 69.91526 v 205.50847 205.50848 l -215.04238,-0.16568 c -182.271,-0.14077 -217.302462,-1.14229 -229.872877,-6.57199 z"
       id="path4510"
       inkscape:connector-curvature="0" /><path
       style="fill:#3b5998;fill-opacity:0;stroke-width:4.237288"
       d="M 70.338983,980.55047 C 46.691055,970.33585 24.255831,945.58436 17.244402,921.97432 11.957582,904.17169 11.016949,840.43407 11.016949,500 c 0,-447.342288 -1.0928092,-429.74289 28.473216,-458.553465 31.386098,-30.584141 1.7187,-28.734671 460.933565,-28.734671 452.33114,0 429.76881,-1.214098 456.95585,24.589186 6.62233,6.28527 16.15623,19.054882 21.18644,28.376916 l 9.14584,16.949153 V 500 917.37288 l -9.14584,16.94915 c -11.67174,21.63022 -28.9975,38.03789 -48.98077,46.38539 -12.92389,5.3986 -36.32919,6.58072 -130.29661,6.58072 H 684.74576 V 781.77966 576.27119 h 69.57856 69.5786 l 2.38,-11.65255 c 2.27894,-11.15779 19.45479,-143.84589 19.47166,-150.42372 0.004,-1.74789 -36.42047,-3.17797 -80.94433,-3.17797 H 683.8578 l 1.65419,-66.73729 c 1.93462,-78.05225 5.94818,-90.04374 34.47242,-102.99416 14.51453,-6.58981 27.90305,-8.0654 73.87152,-8.14159 L 850,233.05085 v -73.7801 -73.780089 l -15.88983,-2.667263 c -8.73941,-1.466995 -45.44492,-2.943046 -81.5678,-3.280114 -96.68068,-0.902144 -138.81453,12.687504 -182.47851,58.855766 -42.057,44.46906 -54.62611,90.28607 -54.73606,199.52468 l -0.0736,73.09322 h -69.91526 -69.91525 v 82.62712 82.62712 h 69.91525 69.91526 v 205.50847 205.50848 l -215.04238,-0.16568 c -182.271,-0.14077 -217.302462,-1.14229 -229.872877,-6.57199 z"
       id="path4512"
       inkscape:connector-curvature="0" /><path
       style="fill:#3b5998;fill-opacity:0;stroke-width:4.237288"
       d="M 70.338983,980.55047 C 46.691055,970.33585 24.255831,945.58436 17.244402,921.97432 11.957582,904.17169 11.016949,840.43407 11.016949,500 c 0,-447.342288 -1.0928092,-429.74289 28.473216,-458.553465 31.386098,-30.584141 1.7187,-28.734671 460.933565,-28.734671 452.33114,0 429.76881,-1.214098 456.95585,24.589186 6.62233,6.28527 16.15623,19.054882 21.18644,28.376916 l 9.14584,16.949153 V 500 917.37288 l -9.14584,16.94915 c -11.67174,21.63022 -28.9975,38.03789 -48.98077,46.38539 -12.92389,5.3986 -36.32919,6.58072 -130.29661,6.58072 H 684.74576 V 781.77966 576.27119 h 69.57856 69.5786 l 2.38,-11.65255 c 2.27894,-11.15779 19.45479,-143.84589 19.47166,-150.42372 0.004,-1.74789 -36.42047,-3.17797 -80.94433,-3.17797 H 683.8578 l 1.65419,-66.73729 c 1.93462,-78.05225 5.94818,-90.04374 34.47242,-102.99416 14.51453,-6.58981 27.90305,-8.0654 73.87152,-8.14159 L 850,233.05085 v -73.7801 -73.780089 l -15.88983,-2.667263 c -8.73941,-1.466995 -45.44492,-2.943046 -81.5678,-3.280114 -96.68068,-0.902144 -138.81453,12.687504 -182.47851,58.855766 -42.057,44.46906 -54.62611,90.28607 -54.73606,199.52468 l -0.0736,73.09322 h -69.91526 -69.91525 v 82.62712 82.62712 h 69.91525 69.91526 v 205.50847 205.50848 l -215.04238,-0.16568 c -182.271,-0.14077 -217.302462,-1.14229 -229.872877,-6.57199 z"
       id="path4514"
       inkscape:connector-curvature="0" /><path
       style="fill:#3b5998;fill-opacity:0;stroke-width:4.237288"
       d="M 70.338983,980.55047 C 46.691055,970.33585 24.255831,945.58436 17.244402,921.97432 11.957582,904.17169 11.016949,840.43407 11.016949,500 c 0,-447.342288 -1.0928092,-429.74289 28.473216,-458.553465 31.386098,-30.584141 1.7187,-28.734671 460.933565,-28.734671 452.33114,0 429.76881,-1.214098 456.95585,24.589186 6.62233,6.28527 16.15623,19.054882 21.18644,28.376916 l 9.14584,16.949153 V 500 917.37288 l -9.14584,16.94915 c -11.67174,21.63022 -28.9975,38.03789 -48.98077,46.38539 -12.92389,5.3986 -36.32919,6.58072 -130.29661,6.58072 H 684.74576 V 781.77966 576.27119 h 69.57856 69.5786 l 2.38,-11.65255 c 2.27894,-11.15779 19.45479,-143.84589 19.47166,-150.42372 0.004,-1.74789 -36.42047,-3.17797 -80.94433,-3.17797 H 683.8578 l 1.65419,-66.73729 c 1.93462,-78.05225 5.94818,-90.04374 34.47242,-102.99416 14.51453,-6.58981 27.90305,-8.0654 73.87152,-8.14159 L 850,233.05085 v -73.7801 -73.780089 l -15.88983,-2.667263 c -8.73941,-1.466995 -45.44492,-2.943046 -81.5678,-3.280114 -96.68068,-0.902144 -138.81453,12.687504 -182.47851,58.855766 -42.057,44.46906 -54.62611,90.28607 -54.73606,199.52468 l -0.0736,73.09322 h -69.91526 -69.91525 v 82.62712 82.62712 h 69.91525 69.91526 v 205.50847 205.50848 l -215.04238,-0.16568 c -182.271,-0.14077 -217.302462,-1.14229 -229.872877,-6.57199 z"
       id="path4516"
       inkscape:connector-curvature="0" /></g></svg>